<svg width="19" height="19" viewBox="0 0 19 19" fill="none" xmlns="http://www.w3.org/2000/svg">
  <path d="M9.5 14C7.01472 14 5 11.9853 5 9.5C5 7.01472 7.01472 5 9.5 5C11.9853 5 14 7.01472 14 9.5C14 11.9853 11.9853 14 9.5 14ZM9.5 13C11.433 13 13 11.433 13 9.5C13 7.567 11.433 6 9.5 6C7.567 6 6 7.567 6 9.5C6 11.433 7.567 13 9.5 13ZM10 3H9V0H10V3ZM14.4497 5.25736L13.7426 4.55025L15.864 2.42893L16.5711 3.13604L14.4497 5.25736ZM16 10V9H19V10H16ZM13.7426 14.4497L14.4497 13.7426L16.5711 15.864L15.864 16.5711L13.7426 14.4497ZM9 16H10V19H9V16ZM4.55025 13.7426L5.25736 14.4497L3.13604 16.5711L2.42893 15.864L4.55025 13.7426ZM3 9V10H0V9H3ZM5.25736 4.55025L4.55025 5.25736L2.42893 3.13604L3.13604 2.42893L5.25736 4.55025Z" fill="currentColor"/>
</svg>
