<svg height="24" width="24" version="1.1" id="Capa_1" xmlns="http://www.w3.org/2000/svg" xmlns:xlink="http://www.w3.org/1999/xlink"
	 viewBox="0 0 279.682 279.682" xml:space="preserve">
<g>
	<path fill="currentColor" d="M143.25,55.486c-41.06,0-74.465,33.405-74.465,74.465c0,16.824,5.511,32.711,15.938,45.939
		c1.998,2.536,4.15,5.033,6.23,7.448c6.212,7.208,12.078,14.017,14.166,21.675c0.045,0.165,0.438,1.773,0.38,7.247l-0.01,0.791
		c-0.063,4.444-0.147,10.528,4.352,15.091c3.081,3.125,7.399,4.645,13.204,4.645h40.272c6.268,0,10.774-1.534,13.776-4.689
		c4.061-4.267,3.789-9.779,3.608-13.427c-0.032-0.645-0.066-1.296-0.074-1.944c-0.065-5.48,0.345-7.025,0.362-7.09
		c2.121-7.657,8.993-15.732,15.057-22.855c2.023-2.377,3.934-4.622,5.714-6.879c10.431-13.23,15.944-29.12,15.944-45.951
		C217.705,88.892,184.305,55.486,143.25,55.486z M189.982,166.614c-1.607,2.036-3.429,4.178-5.358,6.445
		c-7.07,8.307-15.084,17.722-18.089,28.572c-0.429,1.546-0.988,4.395-0.905,11.273c0.01,0.835,0.049,1.675,0.091,2.507
		c0.032,0.657,0.075,1.523,0.071,2.209c-0.528,0.086-1.325,0.166-2.475,0.166h-40.272c-1.276,0-2.022-0.135-2.405-0.237
		c-0.198-0.977-0.17-3.007-0.152-4.287l0.012-0.844c0.072-6.919-0.483-9.789-0.907-11.348c-2.98-10.936-10.575-19.749-17.275-27.524
		c-2.066-2.398-4.019-4.664-5.813-6.942c-8.32-10.557-12.718-23.232-12.718-36.654c0-32.789,26.676-59.465,59.465-59.465
		c32.783,0,59.455,26.676,59.455,59.465C202.705,143.379,198.306,156.058,189.982,166.614z"/>
	<path fill="currentColor" d="M161.766,239.564h-37.041c-7.995,0-14.5,6.505-14.5,14.5v11.117c0,7.995,6.505,14.5,14.5,14.5
		h37.041c7.995,0,14.5-6.505,14.5-14.5v-11.117C176.266,246.069,169.761,239.564,161.766,239.564z M161.266,264.682h-36.041v-10.117
		h36.041V264.682z"/>
	<path fill="currentColor" d="M143.245,45.779c4.143,0,7.5-3.357,7.5-7.5V7.5c0-4.143-3.357-7.5-7.5-7.5
		c-4.143,0-7.5,3.357-7.5,7.5v30.779C135.745,42.422,139.103,45.779,143.245,45.779z"/>
	<path fill="currentColor" d="M241.917,34.598c-2.858-2.995-7.606-3.106-10.604-0.248l-22.77,21.73
		c-2.997,2.859-3.107,7.607-0.248,10.604c1.474,1.544,3.448,2.322,5.427,2.322c1.86,0,3.725-0.688,5.177-2.074l22.77-21.731
		C244.666,42.342,244.776,37.594,241.917,34.598z"/>
	<path fill="currentColor" d="M264.273,109.599c-0.004,0-0.008,0-0.012,0l-29.311,0.047c-4.143,0.007-7.495,3.37-7.488,7.512
		c0.007,4.139,3.363,7.488,7.5,7.488c0.004,0,0.008,0,0.012,0l29.311-0.047c4.143-0.007,7.495-3.37,7.488-7.512
		C271.767,112.948,268.41,109.599,264.273,109.599z"/>
	<path fill="currentColor" d="M74.386,64.684c2.859-2.996,2.749-7.743-0.248-10.604l-22.77-21.73
		c-2.994-2.858-7.742-2.749-10.604,0.248c-2.859,2.996-2.749,7.743,0.248,10.604l22.77,21.731c1.452,1.386,3.315,2.074,5.177,2.074
		C70.937,67.006,72.912,66.228,74.386,64.684z"/>
	<path fill="currentColor" d="M44.729,109.646l-29.31-0.047c-0.004,0-0.008,0-0.012,0c-4.137,0-7.493,3.351-7.5,7.488
		c-0.007,4.142,3.346,7.505,7.488,7.512l29.31,0.047c0.004,0,0.008,0,0.012,0c4.137,0,7.493-3.351,7.5-7.488
		C52.225,113.016,48.872,109.652,44.729,109.646z"/>
</g>
</svg>